<?xml version="1.0" encoding="UTF-8" standalone="no"?>
<!-- Created with Inkscape (http://www.inkscape.org/) -->

<svg
   xmlns:dc="http://purl.org/dc/elements/1.1/"
   xmlns:cc="http://creativecommons.org/ns#"
   xmlns:rdf="http://www.w3.org/1999/02/22-rdf-syntax-ns#"
   xmlns:svg="http://www.w3.org/2000/svg"
   xmlns="http://www.w3.org/2000/svg"
   xmlns:sodipodi="http://sodipodi.sourceforge.net/DTD/sodipodi-0.dtd"
   xmlns:inkscape="http://www.inkscape.org/namespaces/inkscape"
   width="1244"
   height="466.5"
   viewBox="0 0 329.14166 123.42813"
   version="1.1"
   id="svg8"
   inkscape:version="0.92.4 (fd57863, 2020-04-02)"
   sodipodi:docname="qvevribanner2.svg">
  <defs
     id="defs2" />
  <sodipodi:namedview
     id="base"
     pagecolor="#ffffff"
     bordercolor="#666666"
     borderopacity="1.0"
     inkscape:pageopacity="0.0"
     inkscape:pageshadow="2"
     inkscape:zoom="0.125"
     inkscape:cx="-654.9053"
     inkscape:cy="-1725.8589"
     inkscape:document-units="px"
     inkscape:current-layer="layer1"
     showgrid="false"
     units="px"
     showborder="false"
     inkscape:window-width="1858"
     inkscape:window-height="1016"
     inkscape:window-x="62"
     inkscape:window-y="27"
     inkscape:window-maximized="1"
     fit-margin-top="0"
     fit-margin-left="0"
     fit-margin-right="0"
     fit-margin-bottom="0" />
  <metadata
     id="metadata5">
    <rdf:RDF>
      <cc:Work
         rdf:about="">
        <dc:format>image/svg+xml</dc:format>
        <dc:type
           rdf:resource="http://purl.org/dc/dcmitype/StillImage" />
        <dc:title></dc:title>
      </cc:Work>
    </rdf:RDF>
  </metadata>
  <g
     inkscape:label="Layer 1"
     inkscape:groupmode="layer"
     id="layer1"
     transform="translate(-587.38214,-243.33945)">
    <rect
       style="fill:#333333;fill-opacity:0.99504945;stroke-width:0.41310874"
       id="rect944"
       width="329.14166"
       height="123.42812"
       x="587.38214"
       y="243.33945"
       inkscape:export-xdpi="14.199357"
       inkscape:export-ydpi="14.199357" />
    <ellipse
       style="fill:#700070;fill-opacity:1;stroke-width:0.21055824"
       id="path895"
       cx="-93.440247"
       cy="312.16605"
       rx="77.83667"
       ry="28.970345" />
    <path
       style="fill:#800080;fill-opacity:1;stroke-width:0.26458332"
       d="m -342.96615,276.13098 v 55.16562 h -6.87916 c -9.49954,-0.12729 -2.92706,-55.95105 6.87916,-55.16562 z"
       id="rect874"
       inkscape:connector-curvature="0"
       sodipodi:nodetypes="cccc" />
    <path
       style="fill:#ff9955;fill-opacity:1;stroke-width:0.26458332"
       d="m -407.14028,260.48749 c -3.94908,14.73815 -14.63848,35.60716 -22.45202,52.79163 -3.19519,6.69101 -7.62316,14.29166 -11.54004,20.25478 -3.91689,5.96313 -7.32269,10.28873 -14.82357,10.42964 -8.55151,-0.99294 -12.11938,-5.69253 -15.87943,-11.76848 -3.76006,-6.07596 -7.7123,-13.52829 -10.68258,-20.02671 -7.94583,-17.55472 -18.70137,-38.42374 -22.25361,-51.68086 -1.74445,-6.51037 -1.08534,-11.9401 1.30583,-16.42261 2.39116,-4.48251 6.51439,-8.0178 11.69818,-10.7393 5.18378,-2.7215 11.42813,-4.62919 18.06154,-5.85652 1.65835,-0.30683 3.34102,-2.8201 5.03751,-6.35126 0.84825,-1.76558 -3.59172,-4.57938 -2.73787,-5.91159 0.85385,-1.33221 1.70984,-2.24116 2.56666,-2.3137 3.4273,-0.29015 12.15959,-0.42689 15.52961,-0.42689 3.37001,0 12.01962,0.13673 15.30223,0.42689 0.82065,0.0725 1.63659,0.98149 2.44683,2.3137 0.81025,1.33221 -3.67687,4.14601 -2.87901,5.91159 1.59572,3.53116 3.1647,6.04443 4.69903,6.35126 6.13731,1.22733 11.7202,3.13502 16.24253,5.85652 4.52233,2.7215 7.9841,6.25679 9.87917,10.7393 1.89507,4.48251 2.22345,9.91224 0.47901,16.42261 z"
       id="path820-4"
       inkscape:connector-curvature="0"
       sodipodi:nodetypes="scscscsssssssssssssss" />
    <path
       style="fill:#c87137;fill-opacity:1;stroke-width:0.26458332"
       d="m -276.37811,243.40899 c 11.8721,9.58444 26.61644,27.81582 39.15833,41.92463 4.82138,5.63322 9.97459,12.76212 13.83802,18.76001 3.86343,5.9979 6.43709,10.86479 3.52529,17.77886 -4.37421,7.41489 -10.11665,8.77141 -17.19521,9.74567 -7.07857,0.97428 -15.49326,1.5663 -22.63787,1.64734 -19.26869,0.14759 -42.70613,1.52017 -56.26514,-0.60655 -6.65862,-1.0444 -11.35505,-3.84796 -14.48345,-7.85092 -3.1284,-4.00296 -4.68878,-9.20532 -5.0753,-15.04731 -0.38653,-5.84197 0.4008,-12.32359 1.96781,-18.88506 0.39175,-1.64037 -1.22366,-4.19738 -3.76398,-7.17966 -1.27016,-1.49114 -5.64223,1.42705 -6.51395,0.10646 -0.87172,-1.32058 -1.35565,-2.47154 -1.07463,-3.28422 1.12407,-3.25069 4.53886,-11.28877 5.90496,-14.36949 1.36609,-3.08071 4.99736,-10.93235 6.59327,-13.81554 0.39898,-0.7208 1.56065,-1.09823 3.10694,-1.29888 1.5463,-0.20066 2.29961,5.04188 4.23705,5.02823 3.87488,-0.0273 6.80841,-0.44281 7.71086,-1.72104 3.60984,-5.11293 7.61689,-9.44323 11.93797,-12.47413 4.32107,-3.03089 8.95616,-4.76239 13.82206,-4.67771 4.86591,0.0847 9.96263,1.98553 15.20697,6.21931 z"
       id="path820-4-4"
       inkscape:connector-curvature="0"
       sodipodi:nodetypes="scscscsssssssssssssss" />
    <path
       style="fill:#800080;fill-opacity:0.99504945;stroke-width:0.26458332"
       d="m -150.09768,270.20334 v 55.16562 h -6.87917 c -9.49954,-0.12729 -2.92706,-55.95105 6.87917,-55.16562 z"
       id="rect874-7"
       inkscape:connector-curvature="0"
       sodipodi:nodetypes="cccc" />
    <path
       style="fill:#c87137;fill-opacity:1;stroke-width:0.26458332"
       d="m -83.509646,237.48135 c 11.872105,9.58444 26.616441,27.81582 39.158331,41.92463 4.82138,5.63322 9.97459,12.76212 13.83802,18.76001 3.86343,5.9979 6.43709,10.86479 3.52529,17.77886 -4.37421,7.41489 -10.11665,8.77141 -17.19521,9.74567 -7.07857,0.97428 -15.49325,1.5663 -22.637864,1.64734 -19.268697,0.14759 -42.706131,1.52017 -56.265151,-0.60655 -6.65862,-1.0444 -11.35504,-3.84796 -14.48344,-7.85092 -3.12841,-4.00296 -4.68878,-9.20532 -5.07531,-15.04731 -0.38652,-5.84197 0.40081,-12.32359 1.96781,-18.88506 0.39175,-1.64037 -1.22366,-4.19739 -3.76398,-7.17966 -1.27016,-1.49114 -5.64223,1.42705 -6.51395,0.10647 -0.87172,-1.32059 -1.35565,-2.47155 -1.07463,-3.28422 1.12407,-3.2507 4.53886,-11.28878 5.90496,-14.3695 1.36609,-3.08071 4.99737,-10.93235 6.59328,-13.81554 0.39898,-0.7208 1.56065,-1.09823 3.10694,-1.29888 1.54629,-0.20066 2.29961,5.04188 4.23705,5.02823 3.87487,-0.0273 6.8084,-0.44281 7.71086,-1.72104 3.60983,-5.11293 7.61689,-9.44323 11.93796,-12.47413 4.32108,-3.03089 8.95617,-4.76239 13.822072,-4.67771 4.865902,0.0847 9.962624,1.98553 15.206962,6.21931 z"
       id="path820-4-4-6"
       inkscape:connector-curvature="0"
       sodipodi:nodetypes="scscscsssssssssssssss" />
    <ellipse
       style="fill:#700070;fill-opacity:1;stroke-width:0.21055824"
       id="path895-3"
       cx="120.12084"
       cy="312.91415"
       rx="77.836662"
       ry="28.970345" />
    <path
       style="fill:#800080;fill-opacity:0.99504945;stroke-width:0.26458332"
       d="m 63.554353,270.90595 v 55.16562 l -7.805207,2.77813 c -9.499539,-0.12729 -2.001018,-58.72918 7.805207,-57.94375 z"
       id="rect874-7-1"
       inkscape:connector-curvature="0"
       sodipodi:nodetypes="cccc" />
    <path
       style="fill:#c87137;fill-opacity:1;stroke-width:0.26458332"
       d="m 130.05144,238.22944 c 11.8721,9.58444 26.61644,27.81582 39.15833,41.92463 4.82138,5.63322 9.97459,12.76212 13.83802,18.76001 3.86343,5.9979 6.43709,10.86479 3.52529,17.77886 -4.37421,7.41489 -10.11665,8.77141 -17.19521,9.74567 -7.07857,0.97428 -15.49325,1.5663 -22.63786,1.64734 -19.2687,0.14759 -42.70614,1.52017 -56.265157,-0.60655 -6.65861,-1.0444 -11.35504,-3.84796 -14.48343,-7.85092 -3.12842,-4.00296 -4.68879,-9.20532 -5.07532,-15.04731 -0.38651,-5.84197 0.40081,-12.32359 1.96781,-18.88506 0.39175,-1.64037 -1.22365,-4.19739 -3.76397,-7.17966 -1.27017,-1.49114 -5.64224,1.42705 -6.513956,0.10647 -0.87172,-1.32059 -1.35565,-2.47155 -1.07463,-3.28422 1.12407,-3.2507 4.538856,-11.28878 5.904956,-14.3695 1.36609,-3.08071 4.99738,-10.93235 6.59328,-13.81554 0.39899,-0.7208 1.56065,-1.09823 3.10695,-1.29888 1.54628,-0.20066 2.29961,5.04188 4.23704,5.02823 3.87487,-0.0273 6.8084,-0.44281 7.71086,-1.72104 3.60983,-5.11293 7.6169,-9.44323 11.937957,-12.47413 4.32108,-3.03089 8.95617,-4.76239 13.82208,-4.67771 4.8659,0.0847 9.96262,1.98553 15.20696,6.21931 z"
       id="path820-4-4-6-7"
       inkscape:connector-curvature="0"
       sodipodi:nodetypes="scscscsssssssssssssss" />
    <g
       id="g942"
       inkscape:export-xdpi="14.199357"
       inkscape:export-ydpi="14.199357"
       transform="translate(231.25296,14.403517)">
      <ellipse
         ry="28.970345"
         rx="77.836655"
         cy="316.61832"
         cx="520.70001"
         id="path895-3-5"
         style="fill:#700070;fill-opacity:1;stroke-width:0.21055824" />
      <path
         sodipodi:nodetypes="cccc"
         inkscape:connector-curvature="0"
         id="rect874-7-1-9"
         d="m 464.13352,274.61011 v 55.16562 l -7.8052,2.77813 c -9.49954,-0.12729 -2.00102,-58.72918 7.8052,-57.94375 z"
         style="fill:#800080;fill-opacity:0.99504945;stroke-width:0.26458332" />
      <path
         sodipodi:nodetypes="scscscsssssssssssssss"
         inkscape:connector-curvature="0"
         id="path820-4-4-6-7-6"
         d="m 530.63061,241.9336 c 11.8721,9.58444 26.61644,27.81582 39.15833,41.92463 4.82138,5.63322 9.97459,12.76212 13.83802,18.76001 3.86343,5.9979 6.43709,10.86479 3.52529,17.77886 -4.37421,7.41489 -10.11665,8.77141 -17.19521,9.74567 -7.07857,0.97428 -15.49325,1.5663 -22.63786,1.64734 -19.2687,0.14759 -42.70614,1.52017 -56.26516,-0.60655 -6.65861,-1.0444 -11.35504,-3.84796 -14.48343,-7.85092 -3.12842,-4.00296 -4.68879,-9.20532 -5.07532,-15.04731 -0.38651,-5.84197 0.40081,-12.32359 1.96781,-18.88506 0.39175,-1.64037 -1.22365,-4.19739 -3.76397,-7.17966 -1.27017,-1.49114 -5.64224,1.42705 -6.51395,0.10647 -0.87172,-1.32059 -1.35565,-2.47155 -1.07463,-3.28422 1.12407,-3.2507 4.53885,-11.28878 5.90495,-14.3695 1.36609,-3.08071 4.99738,-10.93235 6.59328,-13.81554 0.39899,-0.7208 1.56065,-1.09823 3.10695,-1.29888 1.54628,-0.20066 2.29961,5.04188 4.23704,5.02823 3.87487,-0.0273 6.8084,-0.44281 7.71086,-1.72104 3.60983,-5.11293 7.6169,-9.44323 11.93796,-12.47413 4.32108,-3.03089 8.95617,-4.76239 13.82208,-4.67771 4.8659,0.0847 9.96262,1.98553 15.20696,6.21931 z"
         style="fill:#c87137;fill-opacity:1;stroke-width:0.26458332" />
    </g>
  </g>
</svg>
